<svg xmlns="http://www.w3.org/2000/svg" xmlns:xlink="http://www.w3.org/1999/xlink" width="200" height="80" viewBox="0 0 200 80">
  <defs>
    <clipPath id="clip-path">
      <rect id="Rect치ngulo_68" data-name="Rect치ngulo 68" width="132.2" height="39.839" fill="#ccc"/>
    </clipPath>
  </defs>
  <g id="amazon" transform="translate(-3289 877)">
    <rect id="Rect치ngulo_15" data-name="Rect치ngulo 15" width="200" height="80" rx="8" transform="translate(3289 -877)" fill="#ccc" opacity="0"/>
    <g id="Grupo_28" data-name="Grupo 28" transform="translate(3323 -853)">
      <g id="Grupo_27" data-name="Grupo 27" transform="translate(0 0)" clip-path="url(#clip-path)">
        <path id="Trazado_18" data-name="Trazado 18" d="M108.465,67.306c-7.682,5.669-18.817,8.683-28.406,8.683a51.407,51.407,0,0,1-34.7-13.237c-.719-.65-.078-1.536.787-1.033a69.843,69.843,0,0,0,34.72,9.212,69.073,69.073,0,0,0,26.483-5.419c1.3-.551,2.387.856,1.116,1.795" transform="translate(-26.449 -36.15)" fill="#ccc" fill-rule="evenodd"/>
        <path id="Trazado_19" data-name="Trazado 19" d="M192.726,61.691c-.983-1.258-6.494-.6-8.97-.3-.75.09-.866-.566-.19-1.04,4.4-3.088,11.6-2.2,12.438-1.163s-.222,8.266-4.341,11.713c-.634.53-1.237.247-.956-.453.927-2.316,3-7.5,2.019-8.758" transform="translate(-107.515 -34.184)" fill="#ccc" fill-rule="evenodd"/>
        <path id="Trazado_20" data-name="Trazado 20" d="M183.992,5.19v-3a.741.741,0,0,1,.761-.759l13.449,0a.749.749,0,0,1,.775.757V4.759a4.225,4.225,0,0,1-1.012,1.889L191,16.594a14.927,14.927,0,0,1,7.671,1.648,1.372,1.372,0,0,1,.713,1.171v3.2c0,.441-.483.952-.991.685a15.489,15.489,0,0,0-14.21.027c-.468.249-.957-.255-.957-.7V19.588a3.621,3.621,0,0,1,.5-2.062L191.8,5.946H184.77a.748.748,0,0,1-.777-.756" transform="translate(-107.576 -0.839)" fill="#ccc" fill-rule="evenodd"/>
        <path id="Trazado_21" data-name="Trazado 21" d="M59.4,23.383H55.308a.771.771,0,0,1-.732-.692l0-21a.771.771,0,0,1,.789-.756h3.81a.769.769,0,0,1,.744.706V4.381H60A5.4,5.4,0,0,1,65.385.492c2.559,0,4.163,1.238,5.309,3.889A6.043,6.043,0,0,1,81.082,2.79c1.3,1.768,1.032,4.33,1.032,6.584l0,13.253a.772.772,0,0,1-.789.756H77.234a.767.767,0,0,1-.734-.754l0-11.134a26.791,26.791,0,0,0-.115-3.932A2.133,2.133,0,0,0,73.979,5.75a2.714,2.714,0,0,0-2.445,1.723,12.722,12.722,0,0,0-.382,4.021V22.627a.771.771,0,0,1-.789.756H66.276a.768.768,0,0,1-.735-.754l0-11.134c0-2.342.381-5.788-2.521-5.788-2.941,0-2.827,3.357-2.827,5.788V22.627a.772.772,0,0,1-.789.756" transform="translate(-32.043 -0.289)" fill="#ccc" fill-rule="evenodd"/>
        <path id="Trazado_22" data-name="Trazado 22" d="M236.332.491c6.073,0,9.357,5.215,9.357,11.844,0,6.407-3.628,11.49-9.357,11.49-5.958,0-9.205-5.216-9.205-11.711,0-6.541,3.284-11.623,9.205-11.623m.037,4.287c-3.017,0-3.208,4.109-3.208,6.672s-.038,8.043,3.17,8.043c3.171,0,3.323-4.419,3.323-7.114a19.418,19.418,0,0,0-.611-5.568,2.562,2.562,0,0,0-2.674-2.033" transform="translate(-133.352 -0.288)" fill="#ccc" fill-rule="evenodd"/>
        <path id="Trazado_23" data-name="Trazado 23" d="M284.31,23.383h-4.077a.768.768,0,0,1-.734-.754l-.007-21.008a.774.774,0,0,1,.786-.685h3.8a.779.779,0,0,1,.727.588V4.734h.077c1.146-2.873,2.749-4.242,5.576-4.242a5.363,5.363,0,0,1,4.774,2.475c1.069,1.679,1.069,4.507,1.069,6.54V22.722a.776.776,0,0,1-.784.661h-4.1a.771.771,0,0,1-.728-.661V11.32c0-2.3.268-5.657-2.559-5.657a2.678,2.678,0,0,0-2.368,1.679,9.337,9.337,0,0,0-.65,3.978V22.627a.783.783,0,0,1-.8.756" transform="translate(-164.097 -0.289)" fill="#ccc" fill-rule="evenodd"/>
        <path id="Trazado_24" data-name="Trazado 24" d="M141.971,13.065a8.027,8.027,0,0,1-.767,4.341,3.322,3.322,0,0,1-2.831,1.86c-1.57,0-2.488-1.2-2.488-2.968,0-3.485,3.126-4.118,6.086-4.118Zm4.124,9.976a.844.844,0,0,1-.966.095,9.985,9.985,0,0,1-2.346-2.726c-2.246,2.288-3.836,2.974-6.746,2.974-3.444,0-6.124-2.126-6.124-6.377a6.95,6.95,0,0,1,4.364-6.687c2.219-.975,5.32-1.152,7.694-1.418V8.371a5.238,5.238,0,0,0-.5-2.967,2.734,2.734,0,0,0-2.3-1.063A3.116,3.116,0,0,0,135.887,6.8a.865.865,0,0,1-.711.753l-3.966-.43a.72.72,0,0,1-.61-.856C131.512,1.453,135.857,0,139.75,0c1.991,0,4.593.531,6.163,2.038,1.99,1.86,1.8,4.341,1.8,7.043v6.373a5.586,5.586,0,0,0,1.545,3.792.771.771,0,0,1-.014,1.088c-.835.7-2.32,1.99-3.137,2.718Z" transform="translate(-76.275 0)" fill="#ccc" fill-rule="evenodd"/>
        <path id="Trazado_25" data-name="Trazado 25" d="M12.056,13.065a8.03,8.03,0,0,1-.765,4.341,3.323,3.323,0,0,1-2.832,1.86c-1.569,0-2.488-1.2-2.488-2.968,0-3.485,3.127-4.118,6.086-4.118Zm4.125,9.976a.846.846,0,0,1-.967.095A9.94,9.94,0,0,1,12.87,20.41c-2.247,2.288-3.837,2.974-6.746,2.974C2.679,23.384,0,21.258,0,17.007A6.949,6.949,0,0,1,4.363,10.32c2.22-.975,5.321-1.152,7.693-1.418V8.371a5.241,5.241,0,0,0-.5-2.967,2.734,2.734,0,0,0-2.3-1.063A3.116,3.116,0,0,0,5.974,6.8a.864.864,0,0,1-.711.753L1.3,7.12a.721.721,0,0,1-.611-.856C1.6,1.453,5.942,0,9.837,0,11.827,0,14.43.531,16,2.038c1.99,1.86,1.8,4.341,1.8,7.043v6.373a5.587,5.587,0,0,0,1.544,3.792.772.772,0,0,1-.013,1.088c-.836.7-2.322,1.99-3.138,2.718Z" transform="translate(0 0)" fill="#ccc" fill-rule="evenodd"/>
      </g>
    </g>
  </g>
</svg>
