<svg xmlns="http://www.w3.org/2000/svg" width="200" height="80" viewBox="0 0 200 80">
  <g id="bestbuy" transform="translate(-3289 765)">
    <rect id="Rect치ngulo_26" data-name="Rect치ngulo 26" width="200" height="80" rx="8" transform="translate(3289 -765)" fill="#ccc" opacity="0"/>
    <g id="Best_Buy_logo_2018" transform="translate(3349.267 -752)">
      <path id="path2998" d="M137.5,29.631V54.237h12.883c5.071,0,9.757-1.78,9.757-7.007,0-3.534-2.546-5.147-5.346-5.992a5.291,5.291,0,0,0,3.641-5.136c0-3.857-3.827-6.471-8.98-6.471H137.5Zm7.892,5.731h2.9a2.023,2.023,0,0,1,2.082,1.864,2.052,2.052,0,0,1-2.082,1.806h-2.9Zm0,8.777h3.83a2.373,2.373,0,0,1,2.459,2.176,2.417,2.417,0,0,1-2.691,2.256h-3.6Z" transform="translate(-137.5 -28.925)" fill="#ccc"/>
      <path id="path3005" d="M202.961,309.475V334.08h12.883c5.071,0,9.757-1.78,9.757-7.007,0-3.534-2.546-5.147-5.346-5.992a5.291,5.291,0,0,0,3.642-5.136c0-3.857-3.827-6.471-8.98-6.471Zm7.892,5.731h2.9a2.023,2.023,0,0,1,2.082,1.864,2.052,2.052,0,0,1-2.082,1.806h-2.9Zm0,8.777h3.83a2.373,2.373,0,0,1,2.459,2.176,2.417,2.417,0,0,1-2.691,2.256h-3.6Z" transform="translate(-196.577 -281.479)" fill="#ccc"/>
      <path id="path3007" d="M376.015,54.206V29.6h19.847v5.942H383.884V38.77h9.726v5.571h-9.726v3.946h11.978v5.919Z" transform="translate(-352.756 -28.898)" fill="#ccc"/>
      <path id="path3009" d="M593.827,48.4c5.587,0,10.055-3.187,10.055-8.35,0-8.334-10.841-7.051-10.841-9.646,0-1,1.054-1.534,2.135-1.534a5.225,5.225,0,0,1,3.209,1.227l4.664-4.441a12.522,12.522,0,0,0-8.781-3.268c-5.961,0-9.861,3.538-9.861,7.806,0,8.44,10.685,7.215,10.685,9.863,0,.928-.893,1.862-2.513,1.862a7.108,7.108,0,0,1-4.43-2.052l-4.692,4.473A13.894,13.894,0,0,0,593.827,48.4Z" transform="translate(-539.97 -22.39)" fill="#ccc"/>
      <path id="path3011" d="M795.035,54.206V35.52h-6.5V29.6h20.891V35.52h-6.5V54.206Z" transform="translate(-725.049 -28.898)" fill="#ccc"/>
      <path id="path3013" d="M437.9,309.3h7.869v14.74a3.115,3.115,0,0,0,3.043,2.876,3,3,0,0,0,2.946-2.955V309.3h7.846v14.561c0,5.778-4.8,10.387-11,10.387a10.636,10.636,0,0,1-10.7-10.7Z" transform="translate(-408.61 -281.318)" fill="#ccc"/>
      <path id="path3015" d="M674.375,333.9v-8.792L665.126,309.3h7.962l5.233,8.473,5.251-8.473h7.98l-9.285,15.9v8.7Z" transform="translate(-613.674 -281.318)" fill="#ccc"/>
      <path id="Exclusi칩n_1" data-name="Exclusi칩n 1" d="M24.281,15.552H4.643L0,10.91V4.642L4.643,0H24.281V15.552ZM2.836,6.728A1.045,1.045,0,1,0,3.88,7.773,1.046,1.046,0,0,0,2.836,6.728Z" transform="translate(73.235 41.444)" fill="#ccc"/>
    </g>
  </g>
</svg>
