<svg xmlns="http://www.w3.org/2000/svg" width="200" height="80" viewBox="0 0 200 80">
  <g id="costco" transform="translate(-3289 429)">
    <rect id="Rectángulo_44" data-name="Rectángulo 44" width="200" height="80" rx="8" transform="translate(3289 -429)" fill="#ccc" opacity="0"/>
    <g id="Grupo_64" data-name="Grupo 64" transform="translate(15.249 12.414)">
      <path id="Trazado_217" data-name="Trazado 217" d="M130.706,28.088l5.112-.2-4.3,14.122h9.161l4.3-14.122,5.011.2,2.025-6.681H132.731Zm-18.981,3.7c-1.265,6.631-8.3,10.579-15.995,10.579s-13.16-3.948-11.895-10.579C85.1,25.3,92.188,21.1,99.831,21.1c7.694-.05,13.16,4.2,11.895,10.68m-18.677.1c-.455,2.328,1.164,3.948,3.948,3.948s5.011-1.62,5.466-3.948c.4-2.177-1.012-4-3.948-4a5.278,5.278,0,0,0-5.467,4" transform="translate(3245.573 -436.709)" fill="#ccc"/>
      <path id="Trazado_218" data-name="Trazado 218" d="M54.938,29.756a24.459,24.459,0,0,0,9.313,1.873c5.466,0,11.388-2.43,12.35-7.339.658-3.492-1.822-5.213-5.568-5.922l-2.025-.4c-.658-.152-1.772-.253-1.62-1.012.152-.861,1.367-1.114,2.177-1.114a9.479,9.479,0,0,1,5.011,1.569l3.492-5.264a15.653,15.653,0,0,0-7.643-1.822c-5.467,0-11.439,2.733-12.4,7.643-.607,3.239,2.075,4.96,5.517,5.466l1.772.253c.81.152,1.974.2,1.822,1.164-.2.911-1.67,1.215-2.582,1.215a9.387,9.387,0,0,1-5.365-1.873l-.4-.3ZM115.88,11.18a20.78,20.78,0,0,0-5.973-.86c-7.39,0-14.122,4.809-15.286,10.832-1.114,5.872,3.594,10.478,10.781,10.478a27.118,27.118,0,0,0,6.681-.81l1.772-7.693a9.769,9.769,0,0,1-5.618,1.923c-2.733,0-4.758-1.772-4.353-4,.456-2.227,3.037-4,5.77-4a7.327,7.327,0,0,1,4.96,2.075Zm14.678-.86c-7.643,0-14.78,4.2-15.995,10.68-1.265,6.631,4.2,10.579,11.895,10.579S141.188,27.631,142.453,21c1.215-6.428-4.252-10.68-11.895-10.68M129.242,17.1c2.885,0,4.353,1.822,3.948,4-.455,2.328-2.682,3.948-5.466,3.948s-4.4-1.62-3.948-3.948a5.337,5.337,0,0,1,5.467-4M32.262,6.574a27.339,27.339,0,0,0-7.491-1.012c-9.212,0-17.614,5.821-19.031,13.11-1.417,7.086,4.5,12.654,13.464,12.654a33.369,33.369,0,0,0,8.351-1.012L29.732,21a12.418,12.418,0,0,1-6.985,2.328c-3.442,0-5.973-2.126-5.416-4.859s3.745-4.859,7.187-4.859a9.429,9.429,0,0,1,6.226,2.531Z" transform="translate(3299.525 -425.976)" fill="#ccc"/>
      <path id="Trazado_219" data-name="Trazado 219" d="M76.5,101.519c.709-2.733,3.745-4.5,6.985-4.5,3.392,0,5.77,1.873,5.264,4.808-.557,2.987-3.644,4.758-7.036,4.758-3.29,0-5.619-1.67-5.315-4.4l-.81,4.252h-3.9l.607-3.239H69.82l-.658,3.29h-3.9l1.62-8.6-5.264,8.6H58.077l-.3-5.061h-.152c-.152.455-.253.962-.456,1.417l-1.771,3.644H51.953l-2.126-9.263h4.15l.354,5.517h.1c.2-.557.4-1.164.658-1.721l1.923-3.847H60.1l.456,5.568h.1a8.892,8.892,0,0,1,.607-1.62l1.873-3.9h7.795l-.607,3.138h2.48l.607-3.138h3.9Zm28.9,1.62.2.152a4.107,4.107,0,0,0,2.379.86c.4,0,1.063-.152,1.114-.557s-.455-.455-.81-.506l-.81-.1c-1.518-.253-2.733-1.012-2.43-2.48.405-2.177,3.037-3.442,5.467-3.442a6.857,6.857,0,0,1,3.391.81l-1.518,2.379a4.016,4.016,0,0,0-2.227-.708c-.355,0-.911.1-.962.506-.05.355.4.4.709.456l.86.152c1.67.3,2.733,1.063,2.429,2.632-.05.2-.1.354-.152.557l4.049-6.631h4.454l2.025,8.5,1.62-8.5h4.049l-1.215,6.276h3.391l-.506,2.986H119.525l-.152-1.164h-3.037l-.557,1.164h-4.3l1.012-1.67a6.335,6.335,0,0,1-4.707,1.772,10.7,10.7,0,0,1-4.049-.81l-.1.658H96.039l1.772-9.263H105.3L104.8,99.7H101.4l-.152.86h3.138l-.455,2.43H100.8l-.152.911h3.543l-.3,1.62Zm-54.918.962.557,2.379H8.22V104.1Zm88.78,2.379h-7.592l1.772-9.263h7.491l-.506,2.531h-3.391l-.152.86h3.138l-.455,2.43H136.43l-.152.911h3.543Zm-43.985,0H87.839l1.772-9.263H93.66l-1.215,6.276h3.391ZM80.5,101.924c-.2,1.063.506,1.772,1.721,1.772a2.34,2.34,0,0,0,2.43-1.772c.2-.962-.455-1.822-1.721-1.822a2.311,2.311,0,0,0-2.43,1.822m-30.774-1.164.557,2.379H8.22v-2.379Zm69.394-.506h-.152l-1.265,2.834h1.62l-.152-1.62a9.731,9.731,0,0,1-.051-1.215m-70.2-3.037.354,1.67.2.86H8.17V97.216Z" transform="translate(3297.702 -489.134)" fill="#ccc"/>
    </g>
  </g>
</svg>
