<svg xmlns="http://www.w3.org/2000/svg" xmlns:xlink="http://www.w3.org/1999/xlink" width="200" height="80" viewBox="0 0 200 80">
  <defs>
    <clipPath id="clip-path">
      <rect id="Rect치ngulo_72" data-name="Rect치ngulo 72" width="171.82" height="32.548" fill="#ccc"/>
    </clipPath>
  </defs>
  <g id="hewlettpackard" transform="translate(-4449 765)">
    <rect id="Rect치ngulo_21" data-name="Rect치ngulo 21" width="200" height="80" rx="8" transform="translate(4449 -765)" fill="#ccc" opacity="0"/>
    <g id="Grupo_36" data-name="Grupo 36" transform="translate(4463 -741)">
      <g id="Grupo_35" data-name="Grupo 35" clip-path="url(#clip-path)">
        <path id="Trazado_68" data-name="Trazado 68" d="M211.823,22.428,219.615,0h3.348L219.5,9.9h1.963c2.02,0,3.059.866,2.54,2.6s-3.463,9.929-3.463,9.929h-3.405l3.405-9.7c.115-.578.115-1.1-.577-1.1h-1.039l-3.81,10.795h-3.291ZM232.555,9.845h-5.386l-7.761,22.549h3.3l3.441-9.969H229.2c2.433,0,2.839-.928,3.3-2.261l2.491-7.073C235.856,10.715,234.176,9.845,232.555,9.845Zm-.927,2.609s-2.433,6.9-2.491,7.246-.348.985-.927.985H226.75l3.141-9.1h1.448c.521,0,.463.406.289.87" transform="translate(-196.825)" fill="#ccc" fill-rule="evenodd"/>
        <path id="Trazado_69" data-name="Trazado 69" d="M21.433,29.463c-6-1.932-10.321-7.249-10.321-13.273,0-5.3,3.749-10.64,8.753-13.3L20.9,0H4.327A4.333,4.333,0,0,0,0,4.337V28.044a4.346,4.346,0,0,0,4.327,4.35H20.385ZM28.045,0h20.38a4.307,4.307,0,0,1,4.337,4.3V28.076a4.32,4.32,0,0,1-4.322,4.318H27.929L28.8,29.78c7.272-1.072,12.822-6.748,12.822-13.59,0-7.361-6.423-13.374-14.5-13.753L28.045,0ZM161.453,19.759h-9.47V32.525H161.4c3.408,0,3.638-3.292,3.638-5.083V23.687C165.033,21.435,163.878,19.759,161.453,19.759Zm.635,4.39v3.64c0,1.1-.578,2.079-1.616,2.079h-5.544V22.417H160.7a1.565,1.565,0,0,1,1.385,1.732m-14.17,3.414c.7-.58,1.159-1.449,1.159-3.768a3.788,3.788,0,0,0-3.88-4.057h-8.514v12.81h2.9V28.779h4.98a1.671,1.671,0,0,1,1.738,1.449v2.318h2.78V29.88A2.511,2.511,0,0,0,147.918,27.563Zm-3.012-1.449h-5.328V22.4h4.98a1.615,1.615,0,0,1,1.738,1.739c0,.636-.289,1.97-1.39,1.97Zm-16.271-6.352h-3.81l-5.137,10.97v1.79H122l1.039-2.31h7.378l1.051,2.31h3Zm-4.387,7.8,2.482-5.428,2.471,5.428ZM106.3,32.536V19.749h2.951v4.8h1.272l5.031-4.8h3.933l-6.189,6.017,5.147,5.092v1.678h-2.2l-5.492-5.324h-1.5v5.324ZM90.8,22.768v6.748a2.858,2.858,0,0,0,3,3h7.037a2.829,2.829,0,0,0,2.94-3V28.363h-2.883c0,.577-.117,1.5-1.212,1.5H94.663c-.346,0-.922-.231-.922-1.154V23.634a.956.956,0,0,1,.979-1.154H99.8c.461,0,.979.864,1.039,1.441h2.94V22.827a3.289,3.289,0,0,0-2.94-3.057H93.74A3.318,3.318,0,0,0,90.8,22.768Zm-7.143-3.031H79.834L73.868,32.548h3.127l1.043-2.318h7.4l1.055,2.318h3.012Zm-4.4,7.826,2.49-5.45,2.433,5.45Zm-8.693-7.806h-9.3V32.529h2.946V28.945H70.56c1.733,0,3.7-.982,3.7-4.565,0-3.641-2.137-4.623-3.7-4.623m-.693,6.531H64.205V22.415h5.488c1.445,0,1.445,1.388,1.445,1.965S71.138,26.287,69.867,26.287ZM61.259.209V12.982h2.946V7.9h7.683v5.086h2.946V.209H71.889V5.238H64.205V.209ZM89.719.2H79.888a1.8,1.8,0,0,0-2.024,1.91v9.2a1.8,1.8,0,0,0,1.851,1.678H89.719V10.329H80.813V7.9h7.4V5.238h-7.4V2.865h8.907Zm23.739.013V11.071a1.932,1.932,0,0,0,2.079,1.906H124.2V10.32h-7.8V.214Zm33.548,12.777V2.863h4.311V.2H139.8V2.863h4.252V12.991ZM160.648,13V2.857h4.314V.191H153.439V2.857H157.7V13ZM137.643.207h-9.824A1.8,1.8,0,0,0,125.8,2.115v9.192a1.8,1.8,0,0,0,1.85,1.677h10v-2.66h-8.9V7.9h7.4V5.237h-7.4V2.865h8.9V.207ZM105.409,13c-.87,0-1.709-1.3-1.884-1.942l-2.172-6.7L98.514,13h-1.8c-.87,0-1.624-1.334-1.8-1.971L91.387.188h2.955l2.725,8.757,2.9-8.7h2.78l2.9,8.7L108.363.188h2.956L107.147,13h-1.738ZM170.982.948a2.869,2.869,0,0,0-4.046,0,2.761,2.761,0,0,0-.838,2.021A2.78,2.78,0,0,0,166.928,5a2.86,2.86,0,0,0,4.054,0,2.782,2.782,0,0,0,.838-2.032,2.753,2.753,0,0,0-.838-2.021M170.7,4.724a2.457,2.457,0,0,1-3.486,0,2.406,2.406,0,0,1-.714-1.756,2.383,2.383,0,0,1,.717-1.744,2.453,2.453,0,0,1,3.483,0,2.382,2.382,0,0,1,.717,1.744A2.4,2.4,0,0,1,170.7,4.724Z" transform="translate(0)" fill="#ccc" fill-rule="evenodd"/>
        <path id="Trazado_70" data-name="Trazado 70" d="M2372.245,22.728a.523.523,0,0,1-.027-.164q-.008-.116-.009-.233V22.1a.865.865,0,0,0-.171-.488.767.767,0,0,0-.544-.308,1.2,1.2,0,0,0,.458-.153.689.689,0,0,0,.309-.621.78.78,0,0,0-.488-.8,2.407,2.407,0,0,0-.859-.113h-1.1v3.144h.555V21.527h.436a1.343,1.343,0,0,1,.618.1.772.772,0,0,1,.3.722v.25l.013.1.007.035a.172.172,0,0,1,.008.031h.52Zm-.85-1.658a1.49,1.49,0,0,1-.527.071h-.5V20h.472a1.44,1.44,0,0,1,.67.117.567.567,0,0,1-.116.952Z" transform="translate(-2202.017 -18.234)" fill="#ccc" fill-rule="evenodd"/>
      </g>
    </g>
  </g>
</svg>
