<svg xmlns="http://www.w3.org/2000/svg" xmlns:xlink="http://www.w3.org/1999/xlink" width="200" height="80" viewBox="0 0 200 80">
  <defs>
    <clipPath id="clip-path">
      <rect id="Rect치ngulo_79" data-name="Rect치ngulo 79" width="89.988" height="56.085" fill="#ccc"/>
    </clipPath>
  </defs>
  <g id="homedepot" transform="translate(-3985 541)">
    <rect id="Rect치ngulo_35" data-name="Rect치ngulo 35" width="200" height="80" rx="8" transform="translate(3985 -541)" fill="#ccc" opacity="0"/>
    <g id="Grupo_66" data-name="Grupo 66" transform="translate(4040.424 -529.516)">
      <g id="Grupo_61" data-name="Grupo 61" clip-path="url(#clip-path)">
        <path id="Trazado_187" data-name="Trazado 187" d="M250.553,98.281v2.765l-2.758-.007c-1.535.007-3.071-.01-4.6.014-.054-.618.007-1.24-.037-1.855.217-.058.438-.109.662-.149a6.318,6.318,0,0,0,2.449-1.148,6.97,6.97,0,0,0,2.269-3.186,2.084,2.084,0,0,1,.761-1.145,1.039,1.039,0,0,1,.73.01.871.871,0,0,1,.523.846c.007,1.284-.01,2.564,0,3.855" transform="translate(-160.565 -61.747)" fill="#ccc"/>
        <path id="Trazado_188" data-name="Trazado 188" d="M250.345,48.278s0,2.119,0,3.183a.667.667,0,0,1-.394.666,1.113,1.113,0,0,1-1.165-.078,3.96,3.96,0,0,1-.5-1.148,6.465,6.465,0,0,0-1.827-2.683A6.838,6.838,0,0,0,243.2,46.8c.01-.615-.014-1.233,0-1.855,1.535,0,7.142,0,7.142,0Z" transform="translate(-160.592 -29.679)" fill="#ccc"/>
        <path id="Trazado_189" data-name="Trazado 189" d="M137.543,12.6a1.116,1.116,0,0,1-.628.126q-2.226,0-4.446-.007a.791.791,0,0,1-.72-.272.6.6,0,0,1,0-.479c.194-.309.666-.248.856-.56a2.125,2.125,0,0,0,.041-.462c-.007-1.386,0-2.782-.007-4.174-.5.007-.988.007-1.484,0-.007-.336-.01-.673.007-1.009.5.007.992,0,1.488.007-.01-1.223,0-2.449,0-3.672a3.29,3.29,0,0,0-.048-.754c-.187-.37-.849-.245-.9-.73-.065-.37.312-.611.649-.594,1.508-.01,3.009.007,4.511,0a1.259,1.259,0,0,1,.689.122.464.464,0,0,1,.143.645c-.16.238-.472.255-.707.411-.177.129-.16.363-.173.557q0,4.575,0,9.134a1.226,1.226,0,0,0,.109.611,5.672,5.672,0,0,0,.693.336.479.479,0,0,1-.068.764" transform="translate(-86.602 -0.013)" fill="#ccc"/>
        <path id="Trazado_190" data-name="Trazado 190" d="M172.659,3.458c0,.374-.476.509-.761.374-.2-.156-.234-.428-.336-.645a3.141,3.141,0,0,0-1.994-2,3.156,3.156,0,0,1-.7-.228c-.034-.309,0-.622-.017-.931,1.267-.034,2.53.007,3.791-.024.017,1.158.01,2.306.014,3.458" transform="translate(-111.501)" fill="#ccc"/>
        <path id="Trazado_191" data-name="Trazado 191" d="M170.92,15.683a.44.44,0,0,1-.662,0c-.238-.241-.231-.611-.37-.907a1.62,1.62,0,0,0-1.033-1.012c0-.329.007-.666-.01-.992a2.119,2.119,0,0,0,.859-.7,7.028,7.028,0,0,0,.459-1.141.477.477,0,0,1,.7-.187.667.667,0,0,1,.18.557c0,1.233,0,2.473.007,3.706-.01.228.034.489-.132.679" transform="translate(-111.495 -7.036)" fill="#ccc"/>
        <path id="Trazado_192" data-name="Trazado 192" d="M172.778,29.67q-1.962.01-3.923,0a5.161,5.161,0,0,1,.048-.971,4.044,4.044,0,0,0,1.461-.581,3.657,3.657,0,0,0,1.335-1.759c.119-.245.194-.594.5-.656a.477.477,0,0,1,.584.479c-.007,1.158,0,2.33,0,3.492" transform="translate(-111.501 -16.96)" fill="#ccc"/>
        <path id="Trazado_193" data-name="Trazado 193" d="M156.722,12.71q-2.242.015-4.477,0c-.326.017-.706-.214-.645-.574.014-.377.452-.418.71-.56.214-.082.228-.329.231-.53q-.005-4.478,0-8.95a2.858,2.858,0,0,0-.051-.781c-.177-.282-.557-.251-.791-.462a.5.5,0,0,1,.058-.676A.819.819,0,0,1,152.3.01c1.467,0,2.935.014,4.409-.01.027,1.651,0,3.3.01,4.942.007,2.588-.007,5.18.007,7.768" transform="translate(-100.102)" fill="#ccc"/>
        <path id="Trazado_194" data-name="Trazado 194" d="M247.1,74.571a.921.921,0,0,1-1.233.068,2.135,2.135,0,0,1-.469-.992,4.166,4.166,0,0,0-1.124-2.1,2.917,2.917,0,0,0-1.084-.618c.02-.649-.034-1.311.017-1.956a4.236,4.236,0,0,0,1.005-.547,4.34,4.34,0,0,0,1.209-2.262,1.451,1.451,0,0,1,.7-1.05.871.871,0,0,1,.958.217,1.68,1.68,0,0,1,.234,1.124q-.005,3.429-.007,6.854a2.019,2.019,0,0,1-.2,1.257" transform="translate(-160.587 -42.966)" fill="#ccc"/>
        <path id="Trazado_195" data-name="Trazado 195" d="M220.223,45.108q.005,11.932,0,23.858-4.188,0-8.376.007a1.543,1.543,0,0,1-.985-.326.9.9,0,0,1-.031-1.308c.36-.336.924-.306,1.284-.656a1.12,1.12,0,0,0,.241-.846q-.01-8.84,0-17.693a1.2,1.2,0,0,0-.258-.941c-.377-.367-1-.3-1.335-.72a.885.885,0,0,1-.16-.846,1.184,1.184,0,0,1,1.117-.7q4.147,0,8.284,0c.109-.007.251.034.217.17" transform="translate(-139.042 -29.674)" fill="#ccc"/>
        <path id="Trazado_196" data-name="Trazado 196" d="M157.1,68.665a1.549,1.549,0,0,1-1.009.3c-2.931,0-5.863.007-8.79,0a1.488,1.488,0,0,1-1.07-.346.919.919,0,0,1-.1-1.192c.36-.442,1.026-.367,1.416-.778a1.227,1.227,0,0,0,.2-.754c-.007-5.119,0-10.237-.007-15.36-1.814,6.049-3.6,12.109-5.414,18.158a1.955,1.955,0,0,1-.1.279c-.3-.01-.6-.007-.9,0-2.153-6.328-4.276-12.676-6.416-19.007a9.323,9.323,0,0,0-1.274-2.894c-.217-.285-.594-.251-.907-.3a1.066,1.066,0,0,1-.839-.506.951.951,0,0,1,.37-1.148,1.754,1.754,0,0,1,.873-.177c2.734,0,5.469,0,8.2.01,1.09,3.179,2.211,6.341,3.3,9.528a1.921,1.921,0,0,1,.034.377c.075-.007.143-.017.217-.024l-.092-.068c1.016-3.268,1.946-6.559,2.962-9.823,2.823.01,5.628,0,8.444,0a1.421,1.421,0,0,1,.863.268.9.9,0,0,1,0,1.41c-.394.292-.951.282-1.291.662a2.015,2.015,0,0,0-.17,1.029q.01,8.743.007,17.472a1.246,1.246,0,0,0,.217.876c.34.343.859.35,1.243.618a.906.906,0,0,1,.017,1.386" transform="translate(-87.059 -29.676)" fill="#ccc"/>
        <path id="Trazado_197" data-name="Trazado 197" d="M199.861,137.741a.766.766,0,0,1-.686.251H198.5c-.584,0-1.168,0-1.753,0s-1.172,0-1.756,0h-.679a.766.766,0,0,1-.686-.251.481.481,0,0,1,.149-.74c.156-.088.346-.129.506-.217.027-.017.051-.037.075-.054a.651.651,0,0,0,.051-.048.348.348,0,0,0,.065-.1c.01-.031.02-.061.027-.088a1.16,1.16,0,0,0,.02-.146.608.608,0,0,0,.007-.078,0,0,0,0,1,0,0c0-.129,0-.255,0-.384q-.01-4.458-.007-8.909c.017-.781-.017-1.559.017-2.34v-.16h.007v-.01c.734.014,1.467.017,2.2.017s1.464,0,2.2-.017v.01h.007v.16c.037.781,0,1.559.017,2.34q0,4.453-.007,8.909c0,.129,0,.258,0,.384v0a.608.608,0,0,0,.007.078c.007.048.014.1.02.146.007.027.017.058.027.088a.348.348,0,0,0,.065.1.651.651,0,0,0,.051.048c.024.017.048.037.075.054.16.088.35.129.506.217a.481.481,0,0,1,.149.74" transform="translate(-127.78 -82.186)" fill="#ccc"/>
        <path id="Trazado_198" data-name="Trazado 198" d="M214.5,124.477q.015,2.1,0,4.212a.591.591,0,0,1-.914.445c-.312-.234-.309-.662-.377-1.016a3.858,3.858,0,0,0-1.308-2.575,6.286,6.286,0,0,1,.024-1.073c.863.017,1.719.007,2.575.007" transform="translate(-139.919 -82.192)" fill="#ccc"/>
        <path id="Trazado_199" data-name="Trazado 199" d="M179.823,125.021a3.539,3.539,0,0,0-1.2,2.031c-.119.428-.129.883-.279,1.308a.728.728,0,0,1-.455.4,10.525,10.525,0,0,1,.051,3.662,6.714,6.714,0,0,1-1.844,3.76,5.841,5.841,0,0,1-3.641,1.6,7.327,7.327,0,0,1,.017-1.022c.238-.183.547-.285.706-.55a1.951,1.951,0,0,0,.2-1.111q-.01-4.514-.007-9.015a1.279,1.279,0,0,0-.234-.839,1.935,1.935,0,0,0-.679-.486c-.01-.34-.01-.7-.01-1.036a5.671,5.671,0,0,1,3.774,1.739,6.586,6.586,0,0,1,.975,1.308c.017-.931-.024-1.861.024-2.785.856,0,1.719.007,2.578,0,.034.343.017.69.024,1.039" transform="translate(-113.872 -81.697)" fill="#ccc"/>
        <path id="Trazado_200" data-name="Trazado 200" d="M149.351,137.8a5.79,5.79,0,0,1-3.573-1.552,6.455,6.455,0,0,1-1.821-3.349,9.356,9.356,0,0,1-.207-2.765,3.966,3.966,0,0,1-2.2,1.885,9.272,9.272,0,0,1-2.863.343c0-.343,0-.7-.007-1.046a1.371,1.371,0,0,0,.961-.649,3.27,3.27,0,0,0,.16-1.257c0-.853.007-1.709,0-2.561a2.157,2.157,0,0,0-.353-1.406,1.365,1.365,0,0,0-.764-.387c-.007-.35,0-.7-.007-1.046a6.324,6.324,0,0,1,4,.944,3.738,3.738,0,0,1,1.45,3.013,6.24,6.24,0,0,1,1.868-2.894,5.79,5.79,0,0,1,3.366-1.325c-.007.336,0,.686,0,1.026a1.715,1.715,0,0,0-.74.537,1.356,1.356,0,0,0-.183.788c.007,3.009-.007,6.012,0,9.021a2.106,2.106,0,0,0,.153,1.043,1.731,1.731,0,0,0,.771.6c0,.343.007.693-.01,1.039" transform="translate(-91.572 -81.717)" fill="#ccc"/>
        <path id="Trazado_201" data-name="Trazado 201" d="M126.612,137.818a1.226,1.226,0,0,1-.853.2c-1.6-.014-3.2,0-4.793-.014a.554.554,0,0,1-.5-.734c.105-.428.825-.282.842-.754q-.005-4.962,0-9.921a2.715,2.715,0,0,0-.044-.686c-.177-.312-.577-.3-.836-.5a.519.519,0,0,1,.017-.693.945.945,0,0,1,.744-.228c1.511.007,3.03.007,4.538.007.044,1.321.007,2.653.024,3.984q-.01,3.842-.007,7.7a1.031,1.031,0,0,0,.1.5c.221.268.656.221.856.513a.533.533,0,0,1-.092.628" transform="translate(-79.445 -82.205)" fill="#ccc"/>
        <path id="Trazado_202" data-name="Trazado 202" d="M110.473,152.326c-.007,1.24.007,2.483-.01,3.723-1.389-.017-2.782.027-4.168-.024.01-.343.007-.69.01-1.039a3.681,3.681,0,0,0,3-2.425c.129-.279.221-.69.574-.747a.506.506,0,0,1,.594.513" transform="translate(-70.191 -100.242)" fill="#ccc"/>
        <path id="Trazado_203" data-name="Trazado 203" d="M108.513,141.241c-.2.051-.452.143-.642-.014-.306-.251-.289-.679-.448-1.022a1.74,1.74,0,0,0-1.107-1.094c0-.367,0-.727,0-1.084a1.679,1.679,0,0,0,.951-.771,10.8,10.8,0,0,0,.445-1.165.5.5,0,0,1,.839-.1.844.844,0,0,1,.1.462c-.007,1.206.007,2.4-.007,3.6a2.369,2.369,0,0,1-.129,1.182" transform="translate(-70.204 -89.68)" fill="#ccc"/>
        <path id="Trazado_204" data-name="Trazado 204" d="M110.347,124.506c-.007,1.226,0,2.456-.007,3.682.007.4-.513.489-.815.37a1.211,1.211,0,0,1-.285-.547,3.544,3.544,0,0,0-1.471-1.943,4.856,4.856,0,0,0-1.474-.537c.007-.346.01-.693.007-1.043,1.345.01,2.7-.017,4.045.017" transform="translate(-70.191 -82.204)" fill="#ccc"/>
        <path id="Trazado_205" data-name="Trazado 205" d="M93.39,138c-1.552.02-3.1,0-4.65.017a1.616,1.616,0,0,1-.656-.156c-.092-.194-.217-.421-.105-.625.183-.357.676-.289.9-.584a3.578,3.578,0,0,0,.075-1.043v-8.325a6.334,6.334,0,0,0-.071-1.413c-.231-.35-.866-.241-.944-.72-.088-.394.323-.669.679-.656,1.586-.014,3.166,0,4.748,0,.017,2.537-.007,5.085.017,7.629,0,1.96-.014,3.916,0,5.876" transform="translate(-58.063 -82.208)" fill="#ccc"/>
        <path id="Trazado_206" data-name="Trazado 206" d="M83.713,1.005A3.623,3.623,0,0,0,82.5,3.4a3.763,3.763,0,0,1-.2.815.566.566,0,0,1-.907.061.725.725,0,0,1-.126-.533c0-1.253-.007-2.5,0-3.746.8.024,1.6-.01,2.4.024a3.043,3.043,0,0,1,.044.982" transform="translate(-53.664)" fill="#ccc"/>
        <path id="Trazado_207" data-name="Trazado 207" d="M93.857,12.537a.8.8,0,0,1-.56.194c-1.545,0-3.081,0-4.623,0a.778.778,0,0,1-.611-.2.445.445,0,0,1,0-.656c.194-.17.482-.177.666-.36.166-.143.132-.37.143-.564-.01-3.631.01-7.262-.01-10.893a3.7,3.7,0,0,1,.38-.037c1.267.01,2.53,0,3.8,0q-.01,3.607,0,7.218c.007,1.318-.017,2.629.007,3.943-.024.4.4.472.683.6a.462.462,0,0,1,.132.747" transform="translate(-58.054 -0.013)" fill="#ccc"/>
        <path id="Trazado_208" data-name="Trazado 208" d="M107.665,3.583a1.842,1.842,0,0,1-.082.652.578.578,0,0,1-.992-.071c-.156-.4-.156-.849-.275-1.267A3.359,3.359,0,0,0,105.2.991c0-.312-.017-.632.017-.941a1.2,1.2,0,0,1,.411-.034c.673.01,1.345,0,2.024,0,.017,1.182,0,2.374.014,3.563" transform="translate(-69.465 -0.01)" fill="#ccc"/>
        <path id="Trazado_209" data-name="Trazado 209" d="M119.946,12.143a.592.592,0,0,1-.662.581c-1.491.007-2.975,0-4.46.007a1.565,1.565,0,0,1-.706-.1.482.482,0,0,1-.173-.686c.194-.262.577-.234.788-.469a.885.885,0,0,0,.092-.408q-.01-4.484,0-8.964a2.059,2.059,0,0,0-.085-.815c-.194-.217-.52-.234-.74-.411a.464.464,0,0,1-.014-.639.812.812,0,0,1,.669-.211Q116.881.022,119.1.02a1.881,1.881,0,0,1,.455.044.5.5,0,0,1,.353.662c-.153.316-.564.3-.8.526-.126.112-.112.3-.119.452,0,3.162-.007,6.318,0,9.473-.024.594.873.428.954.965" transform="translate(-75.187 -0.013)" fill="#ccc"/>
        <path id="Trazado_210" data-name="Trazado 210" d="M139,84.261a1.821,1.821,0,0,1-1.223.367q-2.109.015-4.215-.007a1.77,1.77,0,0,1-1.046-.292.829.829,0,0,1,.075-1.342,3.642,3.642,0,0,0,1.328-.941,5.032,5.032,0,0,0,.853-2.6c0-3.1,0-6.2.007-9.31.01-.493-.024-.982.017-1.481a7.375,7.375,0,0,1,.4,1.09c.472,1.365.924,2.741,1.4,4.117a1.46,1.46,0,0,1,.054.387c-.01,1.566,0,3.125,0,4.687a5.711,5.711,0,0,0,.513,2.544,2.618,2.618,0,0,0,1.257,1.281,1.489,1.489,0,0,1,.723.564.908.908,0,0,1-.143.931" transform="translate(-87.305 -45.339)" fill="#ccc"/>
        <path id="Trazado_211" data-name="Trazado 211" d="M114,56.273a14.246,14.246,0,0,1-2.245,7.928,9.706,9.706,0,0,1-3.376,3.084,11.116,11.116,0,0,1-4.351,1.267c.017-.611-.017-1.23.017-1.834.156-.153.384-.187.56-.309a2.017,2.017,0,0,0,1.05-1.814q.01-8.468.007-16.946a2.187,2.187,0,0,0-.452-1.457,2.71,2.71,0,0,0-1.056-.713c-.177-.051-.109-.268-.126-.4.017-.472-.01-.944.01-1.427.02-.017.048-.054.065-.071a10.675,10.675,0,0,1,4.076,1.141,9.9,9.9,0,0,1,3.7,3.373A14.6,14.6,0,0,1,114,56.273" transform="translate(-68.692 -28.778)" fill="#ccc"/>
        <path id="Trazado_212" data-name="Trazado 212" d="M80.436,66.648c0,.618,0,1.23,0,1.844a10.994,10.994,0,0,1-3.665-.914,9.849,9.849,0,0,1-4.253-3.7,14.82,14.82,0,0,1-2.065-8.288,14.319,14.319,0,0,1,2.181-7.625A9.655,9.655,0,0,1,76.653,44.5a11.418,11.418,0,0,1,3.784-.988c-.007.588.017,1.182,0,1.77-.126.238-.445.262-.659.414a2,2,0,0,0-.975,1.787q-.01,8.33,0,16.667a2.518,2.518,0,0,0,.377,1.634,3.034,3.034,0,0,0,1.257.866" transform="translate(-46.523 -28.731)" fill="#ccc"/>
        <path id="Trazado_213" data-name="Trazado 213" d="M44.852,68.628a1.5,1.5,0,0,1-1,.34H35a1.487,1.487,0,0,1-1.067-.357.9.9,0,0,1,.027-1.3c.377-.309.937-.3,1.3-.645a1.317,1.317,0,0,0,.211-.825c0-2.632-.007-5.258,0-7.877-.014-.092.034-.275-.122-.272-.893-.017-1.8.007-2.694-.01,0-.615,0-1.233.007-1.855q1.355-.031,2.717,0c.02-.024.078-.068.1-.092-.024-2.456-.007-4.9-.01-7.364a2.166,2.166,0,0,0-.166-1.09c-.336-.38-.9-.38-1.3-.656a.91.91,0,0,1,.146-1.5,2.249,2.249,0,0,1,1.185-.183c2.86,0,5.713.007,8.566,0a1.48,1.48,0,0,1,.944.323.912.912,0,0,1-.126,1.416,5.216,5.216,0,0,0-1.172.554,1.625,1.625,0,0,0-.217,1.087V65.9a1.2,1.2,0,0,0,.207.764c.329.333.832.343,1.219.584a.914.914,0,0,1,.092,1.382" transform="translate(-21.563 -29.676)" fill="#ccc"/>
        <path id="Trazado_214" data-name="Trazado 214" d="M11.178,68.628a1.5,1.5,0,0,1-1,.34H1.328a1.487,1.487,0,0,1-1.067-.357.9.9,0,0,1,.027-1.3c.377-.309.937-.3,1.3-.645a1.317,1.317,0,0,0,.211-.825c0-2.632,0-15.006,0-17.469a2.166,2.166,0,0,0-.166-1.09c-.336-.38-.9-.38-1.3-.656a.91.91,0,0,1,.146-1.5,2.249,2.249,0,0,1,1.185-.183c2.86,0,5.713.007,8.566,0a1.48,1.48,0,0,1,.944.323.912.912,0,0,1-.126,1.416,5.216,5.216,0,0,0-1.172.554A1.625,1.625,0,0,0,9.66,48.32V65.9a1.2,1.2,0,0,0,.207.764c.329.333.832.343,1.219.584a.914.914,0,0,1,.092,1.382" transform="translate(0 -29.676)" fill="#ccc"/>
        <path id="Trazado_215" data-name="Trazado 215" d="M75.884,132.773a6.289,6.289,0,0,1-1.695,3.512,5.746,5.746,0,0,1-4.086,1.746q-.01-.52,0-1.039a1.48,1.48,0,0,0,.815-.438,2.35,2.35,0,0,0,.329-1.382v-7.707a2.258,2.258,0,0,0-.38-1.511,1.376,1.376,0,0,0-.764-.387,3.363,3.363,0,0,1,.051-1.046,5.285,5.285,0,0,1,3.543,1.24,6.5,6.5,0,0,1,2.035,3.7,9.727,9.727,0,0,1,.153,3.315" transform="translate(-46.281 -82.224)" fill="#ccc"/>
        <path id="Trazado_216" data-name="Trazado 216" d="M54.162,124.482q-.511,0-1.021-.006a2.163,2.163,0,0,0-.931.132.552.552,0,0,0-.058.785,7.11,7.11,0,0,0,.7.336l.012.01a.492.492,0,0,1,.145.274v0c0,.006,0,.012,0,.018.05.677.006,1.361.023,2.049q0,.926,0,1.851,0,.651,0,1.3t0,1.3q0,.925,0,1.85c-.017.687.027,1.372-.023,2.049,0,.006,0,.012,0,.017v0a.491.491,0,0,1-.145.273l-.012.01a7.118,7.118,0,0,0-.7.336.552.552,0,0,0,.058.785,2.163,2.163,0,0,0,.931.132c.34,0,.681-.005,1.021-.006,1.1,0,2.2.006,3.309.006v-.017q-.005-6.742,0-13.488v-.017c-1.1,0-2.206,0-3.309.006" transform="translate(-34.348 -82.196)" fill="#ccc"/>
      </g>
    </g>
  </g>
</svg>
