<svg xmlns="http://www.w3.org/2000/svg" width="200" height="80" viewBox="0 0 200 80">
  <g id="lowes" transform="translate(-3753 541)">
    <rect id="Rect치ngulo_36" data-name="Rect치ngulo 36" width="200" height="80" rx="8" transform="translate(3753 -541)" fill="#ccc" opacity="0"/>
    <g id="layer1" transform="translate(3689.589 -903.46)">
      <path id="Exclusi칩n_2" data-name="Exclusi칩n 2" d="M104.323,47.9H0V16.249H8.418V11.541H25.224L52.167,0,79.109,11.541h16.8v4.708h8.415V47.895ZM80.549,36.8v4.252l.06.02a25.032,25.032,0,0,0,6.73,1.186A6.075,6.075,0,0,0,91.2,41.236a5.952,5.952,0,0,0,2.03-4.194,4.792,4.792,0,0,0-.491-2.212l-.027-.061c-.02-.038-.038-.074-.057-.112l-.029-.059c-.755-1.513-2.446-2.78-5.172-3.871l-.1-.036-.008,0c-.537-.211-2.173-.855-2.355-1.893a1.206,1.206,0,0,1,.395-1.031,2.11,2.11,0,0,1,1.563-.529,8.773,8.773,0,0,1,3.028.724c1.371.569,2.586,1.081,2.6,1.089l.12.05V25.22l-.039-.025a15.845,15.845,0,0,0-5.264-2.037c-.286-.025-.586-.038-.89-.038a6.2,6.2,0,0,0-5.454,2.616,5.507,5.507,0,0,0-.262,5.369c1.1,1.9,2.853,2.7,4.553,3.466l.007,0a21.236,21.236,0,0,1,2.107,1.049l.007,0a1.723,1.723,0,0,1,1,1.795,1.775,1.775,0,0,1-1.851,1.087,2.883,2.883,0,0,1-.386-.025l-.045-.006a38.048,38.048,0,0,1-5.509-1.631l-.117-.044ZM52.161,39.985h0a1.5,1.5,0,0,0,.561,1.112A2.019,2.019,0,0,0,54,41.544h5.648a2.272,2.272,0,0,0,2.268-2.271v-15.5H57.138V37.391H54.259V23.777H50.066V37.391H47.187V23.777H42.41v15.5a2.273,2.273,0,0,0,2.269,2.271h5.647A2.016,2.016,0,0,0,51.6,41.1,1.5,1.5,0,0,0,52.161,39.985ZM64.642,23.775V41.543h11.35V37.386H69.434V34.677h6.558v-4H69.434V27.95h6.558V23.775Zm-36.428,0a2.271,2.271,0,0,0-2.268,2.27V39.275a2.271,2.271,0,0,0,2.268,2.269h9.211a2.272,2.272,0,0,0,2.27-2.269V26.046a2.272,2.272,0,0,0-2.27-2.27ZM11.874,19.957V41.543H24.019V37.391H16.641V19.957Zm83.07,3.086a1.451,1.451,0,1,0,1.468,1.447A1.445,1.445,0,0,0,94.943,23.043Zm-17.9-3.085,0,5.115,3.31.006.69-5.12ZM34.918,37.369H30.724V27.951h4.194v9.417ZM94.943,25.7a1.209,1.209,0,1,1,1.173-1.213A1.172,1.172,0,0,1,94.943,25.7Zm-.306-1.1h.292l.442.724h.283l-.475-.735a.435.435,0,0,0,.431-.46c0-.325-.187-.476-.589-.476h-.637v1.671h.253V24.6Zm.3-.214h-.3v-.518h.345c.246,0,.366.079.366.242C95.347,24.369,95.163,24.39,94.941,24.39Z" transform="translate(111.251 378.285)" fill="#ccc"/>
    </g>
  </g>
</svg>
