<svg xmlns="http://www.w3.org/2000/svg" width="200" height="80" viewBox="0 0 200 80">
  <g id="petco" transform="translate(-4449 429)">
    <rect id="Rectángulo_39" data-name="Rectángulo 39" width="200" height="80" rx="8" transform="translate(4449 -429)" fill="#ccc" opacity="0"/>
    <g id="Petco__Pet_Supplies_Pet_Food_Pet_Products-19" data-name="Petco_ Pet Supplies, Pet Food, &amp; Pet Products-19" transform="translate(4489.845 -409)">
      <path id="Trazado_163" data-name="Trazado 163" d="M64.414,23.213V12.226H69.3v-5H64.414V0h-5.1V3.544a3.36,3.36,0,0,1-3.65,3.686h-1.2v5h4.359V24.134c0,4.43,2.729,7.052,7.088,7.052a8.718,8.718,0,0,0,3.438-.532V25.977a14.715,14.715,0,0,1-1.949.177C65.336,26.189,64.414,25.3,64.414,23.213Z" transform="translate(-4.806)" fill="#ccc"/>
      <path id="Trazado_164" data-name="Trazado 164" d="M12.971,7.346c-3.65,0-6.379,1.7-7.513,3.757V7.913H0V40.8H1.949a3.275,3.275,0,0,0,3.615-3.3V28.858c1.2,1.807,3.792,3.26,7.194,3.26,6.8,0,11.128-5.351,11.128-12.439C23.886,12.7,19.952,7.346,12.971,7.346ZM11.908,27.121c-3.686,0-6.379-2.906-6.379-7.442,0-4.43,2.658-7.336,6.379-7.336,3.792,0,6.379,2.906,6.379,7.336C18.251,24.215,15.629,27.121,11.908,27.121Z" transform="translate(0 -0.648)" fill="#ccc"/>
      <path id="Trazado_165" data-name="Trazado 165" d="M111.732,7.152c-7.052,0-12.226,5.28-12.226,12.545,0,7.3,5.209,12.581,12.226,12.581,7.088,0,12.3-5.28,12.3-12.581C124.029,12.432,118.855,7.152,111.732,7.152Zm0,20.058c-3.437,0-6.591-2.622-6.591-7.513s3.154-7.442,6.591-7.442c3.508,0,6.592,2.516,6.592,7.442C118.359,24.623,115.24,27.21,111.732,27.21Z" transform="translate(-8.782 -0.631)" fill="#ccc"/>
      <path id="Trazado_166" data-name="Trazado 166" d="M51.329,19.449c0-7.478-4.288-12.3-11.553-12.3-5.989,0-11.518,4.961-11.518,12.439,0,8.009,5.67,12.687,12.085,12.687,5.67,0,9.427-3.367,10.7-7.478l.177-.673h-5.28a5.662,5.662,0,0,1-5.6,3.3,6.323,6.323,0,0,1-6.45-6.166H51.187A9.837,9.837,0,0,0,51.329,19.449ZM34.034,17.11a5.671,5.671,0,0,1,5.777-5.245c3.9,0,5.741,2.481,5.812,5.245Z" transform="translate(-2.494 -0.631)" fill="#ccc"/>
      <path id="Trazado_167" data-name="Trazado 167" d="M95.382,22.745H90.208A5.943,5.943,0,0,1,84.29,27.1c-3.544,0-6.592-2.658-6.592-7.442s3.048-7.336,6.485-7.336a5.59,5.59,0,0,1,5.741,4.43h5.28c.213,0-.177-1.595-.248-1.843v-.035c-.992-3.792-4.465-7.726-10.809-7.726-6.8,0-12.085,5.245-12.085,12.545,0,7.194,5.28,12.581,12.226,12.581a10.973,10.973,0,0,0,10.88-7.726C95.17,24.517,95.631,22.745,95.382,22.745Z" transform="translate(-6.36 -0.631)" fill="#ccc"/>
      <path id="Trazado_168" data-name="Trazado 168" d="M126.769,30.551a1.853,1.853,0,0,1,1.843,1.843,1.83,1.83,0,0,1-1.843,1.843,1.843,1.843,0,0,1,0-3.686Zm0,3.331a1.417,1.417,0,0,0,1.418-1.489,1.461,1.461,0,0,0-1.418-1.488,1.417,1.417,0,0,0-1.418,1.488A1.4,1.4,0,0,0,126.769,33.883Zm-.071-1.2h-.141v.709h-.426V31.4h.745a.644.644,0,0,1,.673.638.652.652,0,0,1-.425.6l.425.78h-.5Zm.107-.354c.212,0,.319-.106.319-.283s-.107-.284-.319-.284h-.248v.567Z" transform="translate(-11.025 -2.696)" fill="#ccc"/>
    </g>
  </g>
</svg>
