<svg xmlns="http://www.w3.org/2000/svg" width="200" height="80" viewBox="0 0 200 80">
  <g id="samsclub" transform="translate(-3521 541)">
    <rect id="Rectángulo_37" data-name="Rectángulo 37" width="200" height="80" rx="8" transform="translate(3521 -541)" fill="#ccc" opacity="0"/>
    <path id="path2" d="M160.258,2.309a1.807,1.807,0,0,1,0,2.547l-10.2,10.26L160.26,25.369a1.811,1.811,0,0,1,0,2.552l-2.293,2.306L144.144,16.338a1.735,1.735,0,0,1,0-2.445L157.962,0Zm18.36,11.65a1.635,1.635,0,0,1,0,2.3L164.732,30.226l-2.4-2.41a1.662,1.662,0,0,1,0-2.343L172.64,15.112,162.421,4.844a1.792,1.792,0,0,1,0-2.525L164.727,0Zm-39.973,9.771v.152h-.43V25.01h-.174V23.881h-.43v-.153h1.034Zm.154,0h.247l.367,1.082.364-1.083h.246V25.01h-.165v-.756c0-.026,0-.07,0-.13s0-.125,0-.195L139.5,25.01h-.172l-.367-1.081v.039c0,.032,0,.079,0,.144l0,.142v.756H138.8V23.729Zm-9.079-1.541c2.909,0,4.9-2.333,4.9-5.422,0-3.056-1.995-5.389-4.9-5.389-2.877,0-4.871,2.4-4.871,5.454,0,3.023,1.994,5.356,4.871,5.356Zm.818,3.089a6.089,6.089,0,0,1-5.754-3.648v3.385h-3.269V2.637l3.269-.657v9.957a6.088,6.088,0,0,1,5.754-3.648c4.217,0,7.585,3.253,7.585,8.511,0,5.225-3.367,8.478-7.585,8.478Zm-25.978-7.065V8.552h3.269v9.923a3.662,3.662,0,0,0,7.324,0V8.552h3.269v9.66c0,4.5-2.779,7.032-6.931,7.032s-6.931-2.53-6.931-7.032Zm-2.292,7.032c-3.367.131-5.231-1.643-5.231-5.618V2.637l3.269-.657V19.626c0,1.577.85,2.3,2.027,2.3h.85v3.221a4.33,4.33,0,0,1-.914.1ZM80.85,16.767c0-5.225,3.6-8.478,8.6-8.478A8.259,8.259,0,0,1,95.5,10.655L93.5,13.119a5.652,5.652,0,0,0-4.021-1.741c-3.008,0-5.133,1.807-5.133,5.356s2.126,5.422,5.133,5.422a5.65,5.65,0,0,0,4.054-1.84l1.994,2.432a8.341,8.341,0,0,1-6.081,2.5C84.478,25.245,80.85,21.991,80.85,16.767ZM61.431,23.5l1.471-2.99a8.867,8.867,0,0,0,4.479,1.675c1.831,0,2.55-.887,2.55-1.84.032-1.117-.883-1.545-2.812-2.169-3.237-.985-5.068-2.136-5.068-5.159,0-2.76,2.093-4.732,5.885-4.732a8.982,8.982,0,0,1,5.2,1.643L71.665,12.66a7.675,7.675,0,0,0-3.891-1.315c-1.406,0-2.256.559-2.256,1.643,0,.887.621,1.479,2.681,2.1,3.5,1.052,5.231,2.366,5.231,5.126,0,3.122-2.517,5.027-6.015,5.027A10.78,10.78,0,0,1,61.431,23.5ZM59.074,3.82H62.6l-2.059,6.474H57.832Zm-12.3,21.162h-3.27v-9.99c0-2.071-1.079-3.648-3.269-3.648-2.387,0-4.054,2.1-4.054,4.8v8.84h-3.27V8.552h3.27v2.924a5.292,5.292,0,0,1,4.871-3.22,5.4,5.4,0,0,1,4.969,3.121,6.082,6.082,0,0,1,5.4-3.121c3.432,0,5.949,2.6,5.949,6.769v9.957H54.1v-9.99c0-2.071-1.079-3.648-3.27-3.648-2.386,0-4.053,2.1-4.053,4.8Zm-25.135-13.6c-2.909,0-4.9,2.333-4.9,5.422,0,3.056,1.995,5.389,4.9,5.389,2.878,0,4.872-2.4,4.872-5.454,0-3.023-1.995-5.356-4.872-5.356ZM26.58,21.63a6.087,6.087,0,0,1-5.754,3.648c-4.217,0-7.585-3.253-7.585-8.511,0-5.225,3.368-8.478,7.585-8.478a6.087,6.087,0,0,1,5.754,3.648V8.552h3.27v16.43H26.58ZM0,23.5l1.471-2.99a8.867,8.867,0,0,0,4.479,1.675c1.831,0,2.55-.887,2.55-1.84.032-1.117-.883-1.545-2.811-2.169C2.452,17.194.621,16.044.621,13.021c0-2.76,2.093-4.732,5.885-4.732a8.982,8.982,0,0,1,5.2,1.643L10.233,12.66a7.675,7.675,0,0,0-3.891-1.315c-1.406,0-2.256.559-2.256,1.643,0,.887.621,1.479,2.681,2.1C10.266,16.143,12,17.457,12,20.217c0,3.122-2.517,5.027-6.015,5.027A10.781,10.781,0,0,1,0,23.5Z" transform="translate(3531.125 -516)" fill="#ccc" fill-rule="evenodd"/>
  </g>
</svg>
