<svg xmlns="http://www.w3.org/2000/svg" xmlns:xlink="http://www.w3.org/1999/xlink" width="200" height="80" viewBox="0 0 200 80">
  <defs>
    <clipPath id="clip-path">
      <rect id="Rect치ngulo_69" data-name="Rect치ngulo 69" width="136.883" height="41.331" fill="#ccc"/>
    </clipPath>
  </defs>
  <g id="target" transform="translate(-3289 541)">
    <rect id="Rect치ngulo_38" data-name="Rect치ngulo 38" width="200" height="80" rx="8" transform="translate(3289 -541)" fill="#ccc" opacity="0"/>
    <g id="Grupo_57" data-name="Grupo 57" transform="translate(3320.514 -522)">
      <g id="Grupo_29" data-name="Grupo 29" clip-path="url(#clip-path)">
        <path id="Trazado_40" data-name="Trazado 40" d="M141.264,134.428a6.887,6.887,0,1,1-6.887-6.888,6.887,6.887,0,0,1,6.887,6.888" transform="translate(-113.717 -113.762)" fill="#ccc"/>
        <path id="Trazado_41" data-name="Trazado 41" d="M20.664,0A20.665,20.665,0,1,0,41.33,20.667,20.663,20.663,0,0,0,20.664,0m0,34.44A13.775,13.775,0,1,1,34.433,20.666,13.775,13.775,0,0,1,20.659,34.44" transform="translate(0)" fill="#ccc"/>
        <path id="Trazado_42" data-name="Trazado 42" d="M141.264,134.428a6.887,6.887,0,1,1-6.887-6.888,6.887,6.887,0,0,1,6.887,6.888" transform="translate(-113.717 -113.762)" fill="#ccc"/>
        <path id="Trazado_43" data-name="Trazado 43" d="M141.264,134.428a6.887,6.887,0,1,1-6.887-6.888,6.887,6.887,0,0,1,6.887,6.888" transform="translate(-113.717 -113.762)" fill="#ccc"/>
        <path id="Trazado_44" data-name="Trazado 44" d="M456.413,56.619v5.2H459.9V65h-3.487v8.582c0,1.609.4,2.011,2.011,2.011a6.47,6.47,0,0,0,1.476-.134v3.721a18.676,18.676,0,0,1-2.816.167c-3.654,0-5.431-1.106-5.431-4.19V65H448.77V61.814h2.883v-5.2Z" transform="translate(-400.29 -48.852)" fill="#ccc"/>
        <path id="Trazado_45" data-name="Trazado 45" d="M577.364,115.03c-1,0-1.208-.236-1.208-1.375h0v-8.347c0-3.218-2.514-4.928-7.575-4.928-4.863,0-7.979,2.01-8.18,5.8h4.759c.169-1.809,1.206-2.615,3.186-2.615,1.608,0,3.049.337,3.049,2.315,0,1.541-1.34,1.809-4.424,2.144-2.883.3-4.493.8-5.6,1.744a4.547,4.547,0,0,0-1.509,3.687c0,3.35,2.345,5.2,5.9,5.2a7.557,7.557,0,0,0,6.032-2.379c.37,1.576,1.509,2.245,3.722,2.245a4.269,4.269,0,0,0,1.977-.4V115.03Zm-5.965-3.488c0,2.548-1.308,3.923-3.856,3.923-2.079,0-2.918-.839-2.918-2.213,0-1.878,1.442-2.414,3.89-2.714a5.471,5.471,0,0,0,2.883-.839Z" transform="translate(-499.385 -87.887)" fill="#ccc"/>
        <path id="Trazado_46" data-name="Trazado 46" d="M745.118,100.542v4.425a8.235,8.235,0,0,0-1.71-.167c-3.453,0-4.693,2.38-4.693,5.565v7.81h-4.76V100.843h4.526v3.218h.067a6.09,6.09,0,0,1,5.531-3.687,3.462,3.462,0,0,1,1.039.167Z" transform="translate(-654.667 -87.881)" fill="#ccc"/>
        <path id="Trazado_47" data-name="Trazado 47" d="M849.966,100.849v2.315H849.9a5.421,5.421,0,0,0-5.161-2.781c-4.863,0-7.443,4.158-7.443,8.582,0,5.062,2.414,8.714,7.409,8.714A5.717,5.717,0,0,0,849.9,115h.067v2.379c0,2.65-1.375,4.191-3.821,4.191-1.844,0-3.151-.7-3.553-2.38h-4.727c.2,3.518,3.652,5.565,7.674,5.565,6.337,0,8.952-3.153,8.952-7.644V100.849Zm-4.057,13.242c-2.749,0-3.856-2.38-3.853-5.2,0-2.849,1.375-4.925,3.821-4.925,3.35,0,4.089,2.883,4.089,5.3,0,2.714-1.476,4.826-4.057,4.826" transform="translate(-746.842 -87.888)" fill="#ccc"/>
        <path id="Trazado_48" data-name="Trazado 48" d="M1025.883,109.8c0-5.129-2.982-9.421-8.446-9.419-5.23,0-8.85,3.923-8.85,9.151,0,5.33,3.352,9.118,8.85,9.118,4.156,0,6.838-1.911,8.113-5.833h-4.191c-.37,1.208-1.98,2.245-3.789,2.245-2.715,0-4.089-1.407-4.223-4.392h12.5s.032-.6.032-.871m-12.537-2.146a3.691,3.691,0,0,1,3.923-3.685c2.213,0,3.352,1.07,3.823,3.685Z" transform="translate(-899.63 -87.887)" fill="#ccc"/>
        <path id="Trazado_49" data-name="Trazado 49" d="M1171.705,56.619v5.2h3.487V65h-3.487v8.582c0,1.609.4,2.011,2.011,2.011a6.473,6.473,0,0,0,1.476-.134v3.721a18.724,18.724,0,0,1-2.816.167c-3.654,0-5.431-1.106-5.431-4.19V65h-2.883V61.814h2.883v-5.2Z" transform="translate(-1038.31 -48.852)" fill="#ccc"/>
      </g>
    </g>
  </g>
</svg>
