<svg xmlns="http://www.w3.org/2000/svg" width="200" height="80" viewBox="0 0 200 80">
  <g id="walmart" transform="translate(-3289 653)">
    <rect id="Rectángulo_32" data-name="Rectángulo 32" width="200" height="80" rx="8" transform="translate(3289 -653)" fill="#ccc" opacity="0"/>
    <g id="Walmart_logo" transform="translate(3308.337 -632.562)">
      <path id="Trazado_26" data-name="Trazado 26" d="M129.066,26.664c0-3.864-1.654-7.278-7.248-7.278a13.2,13.2,0,0,0-6.386,1.534l.906,3.1a9.421,9.421,0,0,1,4.668-1.3c2.832,0,3.3,1.6,3.3,2.628v.248c-6.182-.01-10.089,2.126-10.089,6.476a5.141,5.141,0,0,0,5.452,5.15,6.242,6.242,0,0,0,4.972-2.2h.1s.7,2.946,4.6,1.82a25.657,25.657,0,0,1-.272-4.114Zm-4.612,4.08a2.977,2.977,0,0,1-.118.914,3.228,3.228,0,0,1-3.112,2.186,2.111,2.111,0,0,1-2.3-2.26c0-2.34,2.584-2.984,5.532-2.968" transform="translate(-34.425 -5.843)" fill="#ccc"/>
      <path id="Trazado_27" data-name="Trazado 27" d="M0,11.861S4.038,28.38,4.68,31.056c.756,3.128,2.11,4.284,6.018,3.514l2.524-10.243c.638-2.538,1.072-4.358,1.484-6.944h.07A68.151,68.151,0,0,0,16,24.334s1.03,4.654,1.564,7.092,1.984,3.976,5.818,3.144l6.008-22.709h-4.85l-2.062,9.823c-.546,2.846-1.042,5.088-1.428,7.7h-.07c-.348-2.58-.79-4.73-1.358-7.518l-2.136-10h-5.06l-2.28,9.745c-.65,2.976-1.258,5.362-1.64,7.888H8.435c-.394-2.37-.928-5.388-1.494-8.252,0,0-1.354-6.978-1.832-9.381" transform="translate(0 -3.575)" fill="#ccc"/>
      <path id="Trazado_28" data-name="Trazado 28" d="M55,26.664c0-3.864-1.658-7.278-7.252-7.278a13.208,13.208,0,0,0-6.382,1.534l.906,3.1a9.391,9.391,0,0,1,4.668-1.3c2.832,0,3.3,1.6,3.3,2.628v.248c-6.182-.01-10.093,2.126-10.093,6.476a5.143,5.143,0,0,0,5.444,5.15,6.221,6.221,0,0,0,4.976-2.2h.108s.708,2.946,4.6,1.82A25.466,25.466,0,0,1,55,32.723Zm-4.616,4.08a3.1,3.1,0,0,1-.114.914,3.239,3.239,0,0,1-3.12,2.186,2.112,2.112,0,0,1-2.3-2.26c0-2.34,2.584-2.984,5.532-2.968" transform="translate(-12.099 -5.843)" fill="#ccc"/>
      <path id="Trazado_29" data-name="Trazado 29" d="M65.012,11.861v22.7h4.616v-22.7Z" transform="translate(-19.595 -3.575)" fill="#ccc"/>
      <path id="Trazado_30" data-name="Trazado 30" d="M155.753,11.861V28.61c0,2.312.434,3.924,1.368,4.912a5.143,5.143,0,0,0,3.76,1.43,11.181,11.181,0,0,0,3.348-.494l-.056-3.606a7.4,7.4,0,0,1-1.76.2c-1.576,0-2.1-1-2.1-3.074V21.57h4.02V17.232h-4.02V11.861" transform="translate(-46.946 -3.575)" fill="#ccc"/>
      <path id="Trazado_31" data-name="Trazado 31" d="M138.675,19.786V36.843h4.772V28.108a6.443,6.443,0,0,1,.1-1.252,3.594,3.594,0,0,1,3.768-3.008,7.983,7.983,0,0,1,1.368.128V19.5a4.9,4.9,0,0,0-5.7,3.506h-.118V19.786" transform="translate(-41.799 -5.849)" fill="#ccc"/>
      <path id="Trazado_32" data-name="Trazado 32" d="M75.456,19.786V36.843h4.65V26.832a3.89,3.89,0,0,1,.218-1.384,3.12,3.12,0,0,1,2.822-2.188c1.872,0,2.756,1.58,2.756,3.86v9.723h4.638V26.712a4.77,4.77,0,0,1,.192-1.376,2.909,2.909,0,0,1,2.792-2.076c1.892,0,2.808,1.546,2.808,4.234v9.349h4.634V26.786c0-5.284-2.688-7.38-5.74-7.38a6.171,6.171,0,0,0-3.37.922,7.306,7.306,0,0,0-2.162,2.118h-.07a4.866,4.866,0,0,0-4.71-3.04,5.363,5.363,0,0,0-4.972,2.69h-.07v-2.31" transform="translate(-22.743 -5.849)" fill="#ccc"/>
      <path id="Trazado_33" data-name="Trazado 33" d="M202.629,13.171a1.689,1.689,0,0,0,1.78-1.088l.9-10.239C205.312.83,204.119,0,202.629,0s-2.684.83-2.684,1.844l.912,10.239a1.675,1.675,0,0,0,1.772,1.088" transform="translate(-60.266)" fill="#ccc"/>
      <path id="Trazado_34" data-name="Trazado 34" d="M190.7,19.917a1.679,1.679,0,0,0-.062-2.084l-8.44-5.9c-.878-.512-2.192.1-2.944,1.39s-.6,2.738.262,3.24l9.343,4.332a1.671,1.671,0,0,0,1.84-.984" transform="translate(-53.885 -3.542)" fill="#ccc"/>
      <path id="Trazado_35" data-name="Trazado 35" d="M211.59,19.91a1.718,1.718,0,0,0,1.842,1l9.343-4.344c.868-.512,1-1.946.264-3.236-.75-1.292-2.072-1.9-2.948-1.4l-8.442,5.9a1.723,1.723,0,0,0-.05,2.092" transform="translate(-63.683 -3.543)" fill="#ccc"/>
      <path id="Trazado_36" data-name="Trazado 36" d="M202.629,37.163a1.689,1.689,0,0,1,1.78,1.088l.9,10.239c0,1.014-1.194,1.836-2.684,1.836s-2.684-.822-2.684-1.836l.912-10.239a1.675,1.675,0,0,1,1.772-1.088" transform="translate(-60.266 -11.201)" fill="#ccc"/>
      <path id="Trazado_37" data-name="Trazado 37" d="M211.59,32.136c.478-.794,1.26-1.218,1.842-.988l9.343,4.336c.868.5,1,1.948.264,3.24-.75,1.282-2.072,1.892-2.948,1.39l-8.442-5.9a1.7,1.7,0,0,1-.05-2.074" transform="translate(-63.683 -9.37)" fill="#ccc"/>
      <path id="Trazado_38" data-name="Trazado 38" d="M190.7,32.127a1.68,1.68,0,0,1-.062,2.084L182.2,40.1c-.878.512-2.192-.1-2.944-1.382s-.6-2.738.262-3.24l9.343-4.336a1.668,1.668,0,0,1,1.84.98" transform="translate(-53.885 -9.37)" fill="#ccc"/>
      <path id="Trazado_39" data-name="Trazado 39" d="M231.219,42.169h.116c.158,0,.222.05.24.176a.868.868,0,0,0,.086.274h.3a.545.545,0,0,1-.078-.282.319.319,0,0,0-.222-.268v-.028a.273.273,0,0,0,.24-.262.345.345,0,0,0-.1-.248.814.814,0,0,0-.408-.086,1.892,1.892,0,0,0-.436.042v1.132h.266Zm.008-.516.136-.018c.16,0,.246.074.246.178s-.116.17-.264.17h-.118Zm.17-.768a1.148,1.148,0,1,0,1.168,1.14,1.143,1.143,0,0,0-1.168-1.14m0,.23a.915.915,0,0,1,0,1.828.915.915,0,0,1-.008-1.828" transform="translate(-69.392 -12.323)" fill="#ccc"/>
    </g>
  </g>
</svg>
